<?xml version="1.0" standalone="no"?>
<!DOCTYPE svg PUBLIC "-//W3C//DTD SVG 20010904//EN"
 "http://www.w3.org/TR/2001/REC-SVG-20010904/DTD/svg10.dtd">
<svg version="1.0" xmlns="http://www.w3.org/2000/svg"
 width="1091.000000pt" height="1280.000000pt" viewBox="0 0 1091.000000 1280.000000"
 preserveAspectRatio="xMidYMid meet">
<metadata>
Created by potrace 1.15, written by Peter Selinger 2001-2017
</metadata>
<g transform="translate(0.000000,1280.000000) scale(0.100000,-0.100000)"
fill="#000000" stroke="none">
<path d="M2915 12779 c-72 -30 -214 -54 -228 -40 -16 16 -42 14 -57 -4 -8 -10
-31 -15 -64 -15 -28 0 -69 -5 -91 -10 -22 -5 -74 -13 -115 -19 -141 -19 -313
-59 -322 -74 -10 -18 -43 -34 -253 -122 -183 -76 -283 -133 -324 -182 -42 -51
-95 -167 -116 -252 -16 -67 -20 -74 -52 -87 -27 -12 -399 -104 -417 -104 -2 0
-54 -57 -115 -127 -60 -71 -131 -148 -156 -172 -26 -25 -72 -76 -103 -115
-119 -150 -293 -354 -306 -359 -7 -3 -32 -34 -54 -69 -47 -72 -58 -86 -107
-146 -31 -39 -45 -72 -30 -72 3 0 25 9 47 20 23 11 49 20 58 20 10 0 78 18
153 40 74 22 149 40 166 40 37 0 38 6 -20 -178 -49 -157 -68 -248 -81 -397
-11 -130 -5 -475 12 -640 6 -55 17 -165 24 -245 21 -228 60 -368 119 -432 14
-15 42 -59 63 -98 21 -39 83 -123 138 -187 75 -88 111 -141 147 -214 26 -54
70 -135 96 -179 26 -45 53 -89 58 -99 6 -9 27 -32 48 -50 20 -18 37 -38 37
-45 0 -6 26 -26 58 -44 31 -18 82 -49 112 -68 30 -19 64 -36 75 -39 11 -2 54
-9 95 -15 121 -20 180 -53 180 -102 0 -32 -6 -33 -78 -15 -68 18 -82 5 -82
-79 0 -69 4 -75 51 -92 47 -16 84 -15 99 3 7 8 28 15 47 15 19 0 48 9 63 20
21 15 31 17 36 8 4 -7 2 -14 -6 -16 -7 -3 -30 -21 -51 -41 -21 -21 -56 -43
-78 -51 -48 -16 -51 -26 -14 -56 23 -18 30 -20 48 -9 40 25 62 27 68 5 3 -14
13 -20 31 -20 22 0 26 -5 26 -27 0 -71 -1 -71 -128 -76 -131 -4 -327 -32 -357
-51 -11 -7 -55 -25 -98 -40 -62 -23 -81 -34 -88 -55 -18 -46 -4 -208 30 -361
53 -234 64 -494 26 -587 -15 -35 -29 -49 -81 -78 -34 -19 -77 -49 -94 -67 -66
-66 -65 -57 -70 -358 l-6 -275 -51 -150 c-33 -95 -55 -183 -63 -240 -6 -49
-21 -130 -32 -180 -11 -49 -24 -148 -28 -220 -5 -71 -14 -177 -20 -235 -17
-151 -18 -481 -2 -555 7 -33 15 -121 18 -195 3 -74 9 -144 14 -155 11 -25 43
-205 70 -388 34 -235 156 -732 244 -993 100 -301 226 -590 491 -1130 75 -153
145 -297 156 -319 10 -23 30 -51 43 -64 14 -13 28 -38 32 -55 3 -17 9 -35 13
-41 4 -5 5 -34 3 -63 -3 -39 -8 -52 -17 -48 -10 4 -24 -38 -54 -162 -50 -211
-61 -271 -61 -344 l0 -58 1580 0 c992 0 1580 4 1580 10 0 5 -7 13 -17 18 -15
9 -14 10 3 16 11 3 24 20 29 38 7 23 18 34 38 39 36 10 97 56 97 73 0 14 34
31 85 42 40 8 189 75 193 86 2 4 21 11 43 14 21 4 39 10 39 15 0 5 7 9 16 9 9
0 18 9 21 20 6 21 33 28 33 9 0 -7 11 -8 30 -4 17 4 68 11 113 15 45 5 114 13
152 19 39 5 146 11 238 12 93 2 171 7 173 11 3 4 16 8 28 8 13 0 35 11 50 25
21 20 26 33 26 74 0 27 4 52 8 55 11 6 9 97 -2 114 -4 7 -12 9 -18 6 -8 -5 -9
-1 -3 12 4 10 11 69 15 129 8 110 94 560 145 760 74 288 162 525 193 525 5 0
28 -37 52 -82 93 -179 173 -300 219 -332 25 -17 61 -45 80 -62 79 -70 236
-124 355 -124 39 0 107 5 152 12 81 12 81 11 130 -17 27 -16 81 -52 119 -81
39 -28 98 -66 133 -84 61 -32 66 -32 150 -26 89 7 213 36 267 63 17 8 42 29
56 45 25 30 27 30 63 18 21 -7 63 -10 92 -8 61 5 93 29 125 90 10 21 28 42 39
48 14 7 20 21 20 44 l0 34 73 -23 c39 -13 126 -45 192 -71 66 -25 134 -49 152
-51 18 -3 38 -11 44 -19 6 -8 18 -14 26 -14 7 0 16 -7 19 -15 4 -8 16 -15 28
-15 11 0 41 -14 65 -30 24 -17 48 -30 53 -30 5 0 55 -21 111 -47 l102 -48 117
2 c143 2 269 23 453 74 159 45 314 79 355 79 38 0 236 66 285 95 53 31 130
113 150 161 51 118 78 273 96 550 11 162 11 188 -4 250 -9 38 -17 80 -17 93 0
31 -143 368 -178 420 -32 46 -111 133 -165 179 -21 18 -39 42 -39 55 -2 31
-344 369 -451 445 -46 33 -94 63 -105 67 -12 3 -22 10 -22 16 0 5 -21 30 -47
57 -27 26 -62 64 -79 84 -18 20 -41 41 -51 47 -21 11 -31 79 -53 386 -6 77
-15 165 -20 195 -10 62 -36 294 -45 415 -8 98 -10 107 -91 375 -111 366 -164
530 -214 655 -91 226 -432 977 -507 1116 -22 42 -44 87 -48 100 -6 21 -120
252 -169 344 -9 17 -16 36 -16 43 0 7 -7 15 -15 18 -8 4 -15 12 -15 19 0 7
-27 64 -59 126 -33 63 -148 305 -256 539 -108 233 -241 514 -295 625 -53 110
-107 221 -120 248 -12 26 -26 47 -31 47 -5 0 -27 36 -49 79 -22 44 -46 83 -53
88 -7 4 -24 24 -37 43 -13 19 -126 163 -250 320 -125 157 -252 321 -284 365
-80 111 -141 173 -229 232 -68 46 -166 137 -167 155 0 17 -68 79 -95 86 -41
12 -248 -1 -252 -15 -5 -13 -130 37 -239 96 -41 23 -89 41 -106 41 -31 0 -83
-27 -123 -64 -13 -12 -55 -44 -93 -71 -39 -28 -71 -54 -72 -59 0 -4 -18 -30
-39 -58 -22 -27 -41 -53 -43 -57 -3 -9 -122 -71 -137 -71 -25 0 -298 -203
-383 -284 -41 -39 -55 -72 -77 -180 -17 -83 -18 -101 -6 -124 7 -15 18 -38 23
-52 5 -14 17 -43 25 -65 25 -62 25 -88 -1 -110 -33 -29 -90 -188 -99 -276 -3
-33 0 -50 11 -62 9 -8 16 -20 16 -24 0 -24 144 -133 175 -133 26 0 55 -19 127
-82 70 -63 104 -77 244 -104 42 -7 93 -26 124 -44 80 -47 208 -110 224 -110 7
0 19 -6 25 -13 6 -8 37 -19 68 -26 32 -7 78 -18 103 -26 26 -8 148 -19 285
-26 284 -14 295 -17 348 -106 19 -32 42 -75 52 -95 9 -21 21 -38 25 -38 13 0
70 -111 70 -137 0 -13 4 -23 9 -23 5 0 11 -8 14 -17 3 -10 33 -90 67 -178 79
-206 83 -219 119 -350 16 -60 39 -135 50 -165 12 -30 21 -72 21 -94 0 -24 6
-43 16 -50 29 -22 108 -382 148 -676 19 -142 45 -583 48 -825 3 -173 2 -180
-17 -183 -24 -3 -67 39 -133 128 -87 118 -109 154 -140 238 -18 47 -48 102
-67 125 -19 22 -52 75 -72 116 -29 59 -60 98 -141 181 -86 86 -112 120 -148
192 -24 48 -44 93 -44 101 0 26 -64 88 -128 124 -37 20 -103 58 -148 83 -44
26 -91 51 -104 55 -43 14 -95 6 -155 -21 -49 -22 -79 -29 -164 -33 -70 -4
-106 -10 -109 -19 -6 -19 -28 -14 -44 9 -23 35 -102 38 -173 5 -32 -14 -63
-26 -71 -26 -7 0 -34 -14 -59 -32 l-45 -32 -104 27 c-57 15 -120 27 -140 27
-35 0 -141 -34 -150 -48 -2 -4 -7 -28 -10 -52 -11 -89 -19 -104 -60 -114 -29
-8 -43 -6 -63 6 -14 8 -24 18 -24 21 1 9 -37 47 -47 47 -4 0 -26 18 -47 41
-81 82 -411 291 -515 325 l-65 21 1 39 c0 21 4 120 8 219 7 145 12 186 26 210
10 17 30 60 45 96 14 37 37 77 51 90 14 13 24 34 24 50 0 16 12 54 26 86 35
79 77 261 114 488 43 269 48 293 71 305 10 6 19 17 19 25 0 7 6 26 14 42 24
48 87 252 116 373 15 64 32 125 38 136 58 104 99 421 73 560 -13 67 -47 157
-71 184 -10 12 -16 28 -13 37 4 9 -11 32 -39 61 -25 26 -76 97 -114 157 -37
61 -130 204 -207 318 -130 195 -140 208 -164 202 -34 -8 -56 10 -40 35 14 23
4 56 -51 170 -20 41 -35 84 -33 96 2 19 -19 71 -83 207 -31 65 -67 90 -115 81
-20 -4 -31 -2 -31 5 0 6 5 11 10 11 21 0 10 78 -15 108 -14 17 -25 37 -25 46
0 29 -36 90 -86 145 -44 48 -45 53 -25 58 35 9 24 18 -49 42 -38 13 -70 27
-70 31 0 4 -21 19 -47 33 -27 14 -65 44 -87 67 -21 22 -42 40 -46 40 -4 0 -21
13 -38 29 -21 20 -29 36 -25 50 4 15 -9 33 -52 73 -32 29 -60 53 -64 53 -15 0
-141 60 -141 67 0 11 -68 44 -143 68 -37 12 -70 28 -74 35 -5 7 -17 14 -28 16
-16 3 -21 13 -23 46 -6 75 39 134 206 267 34 28 62 53 62 58 0 17 -144 7 -195
-13z"/>
</g>
</svg>
